<?xml version="1.0" encoding="utf-8"?>
<!-- Generator: Adobe Illustrator 17.1.0, SVG Export Plug-In . SVG Version: 6.00 Build 0)  -->
<!DOCTYPE svg PUBLIC "-//W3C//DTD SVG 1.1//EN" "http://www.w3.org/Graphics/SVG/1.1/DTD/svg11.dtd">
<svg version="1.1" xmlns="http://www.w3.org/2000/svg" xmlns:xlink="http://www.w3.org/1999/xlink" x="0px" y="0px"
	 viewBox="0 0 7 7" style="enable-background:new 0 0 7 7;" xml:space="preserve">
<style type="text/css">

	line {
	    opacity: 0.07;
	    fill: none;
	    stroke: #E5E8E6;
	}
	
	.st0{fill:#3E4645;}
	.st1{fill:#FFF5E3;}
	.st2{display:none;fill:none;}
	.st3{display:none;opacity:0.3;}
	.st4{display:inline;fill-rule:evenodd;clip-rule:evenodd;fill:#1D1D1B;}
	.st5{display:none;opacity:0.15;}
	.st6{display:inline;fill:#1D1D1B;}
	.st7{display:inline;}
	.st8{fill:#1D1D1B;}
	.st9{opacity:0.1;fill:#1D1D1B;}
	.st10{display:none;}
	.st11{fill:#FFFFFF;stroke:#58595B;stroke-width:0.75;stroke-miterlimit:10;}
	.st12{fill:#8DB547;}
	.st13{fill:#FF8F39;}
	.st14{fill:#FF4247;}
	.st15{fill:#FF7BA7;}
	.st16{fill:#3DB3D1;}
	.st17{fill:#4EBB66;}
	.st18{opacity:7.000000e-02;fill:none;stroke:#E5E8E6;}
	.st19{fill:#E5E8E6;}
	.st20{fill:none;stroke:#FF8F39;stroke-miterlimit:10;}
	.st21{fill:none;stroke:#FF8F39;stroke-miterlimit:10;stroke-dasharray:1,1;}
	.st22{fill:none;stroke:#FF8F39;stroke-width:2;stroke-miterlimit:10;}
	.st23{fill:#E5E8E6;stroke:#FF8F39;stroke-miterlimit:10;}
	.st24{fill:#E5E8E6;stroke:#FF8F39;stroke-width:2;stroke-miterlimit:10;stroke-dasharray:2,2;}
	.st25{fill:none;stroke:#FF8F39;stroke-width:0.5;stroke-miterlimit:10;}
	.st26{fill-rule:evenodd;clip-rule:evenodd;fill:#FF8F39;}
	.st27{fill:none;stroke:#FF7BA7;stroke-miterlimit:10;}
	.st28{fill:none;stroke:#8DB547;stroke-dasharray:1,1;}
	.st29{fill:none;stroke:#8DB547;stroke-miterlimit:10;}
	.st30{fill:none;stroke:#8DB547;stroke-width:6;stroke-miterlimit:10;stroke-dasharray:1,1;}
	.st31{fill:none;stroke:#8DB547;stroke-width:3;stroke-miterlimit:10;stroke-dasharray:1,1;}
	.st32{fill:none;stroke:#8DB547;stroke-miterlimit:10;stroke-dasharray:1,1;}
	.st33{fill:none;stroke:#FF4247;stroke-dasharray:1,1;}
	.st34{fill:none;stroke:#FF4247;}
	.st35{fill:none;stroke:#E5E8E6;}
	.st36{fill:none;stroke:#FF4247;stroke-miterlimit:10;}
	.st37{fill:none;stroke:#3DB3D1;stroke-width:13;stroke-dasharray:1,2;}
	.st38{fill:none;stroke:#3DB3D1;stroke-width:18;stroke-dasharray:1,2;}
	.st39{fill:#E5E8E6;stroke:#3DB3D1;stroke-linecap:round;}
	.st40{fill:none;stroke:#3DB3D1;stroke-linecap:round;}
	.st41{fill:none;stroke:#E5E8E6;stroke-linecap:round;stroke-miterlimit:10;}
	.st42{fill:none;stroke:#3DB3D1;stroke-linecap:round;stroke-miterlimit:10;}
	.st43{fill:none;stroke:#3DB3D1;stroke-miterlimit:10;}
	.st44{fill:none;stroke:#3DB3D1;stroke-dasharray:1,1;}
	.st45{fill:#E5E8E6;stroke:#3DB3D1;}
	.st46{fill:none;stroke:#3DB3D1;stroke-linecap:round;stroke-dasharray:1,1;}
	.st47{fill:none;}
	.st48{fill:none;stroke:#E5E8E6;stroke-linecap:round;}
	.st49{fill:none;stroke:#E5E8E6;stroke-width:0.5;stroke-linecap:round;}
	.st50{fill:none;stroke:#FF7BA7;stroke-miterlimit:10;stroke-dasharray:1,1;}
	.st51{fill:none;stroke:#FF7BA7;stroke-width:3;stroke-miterlimit:10;}
	.st52{fill:#E5E8E6;stroke:#FF7BA7;stroke-miterlimit:10;}
	.st53{fill-rule:evenodd;clip-rule:evenodd;fill:#E5E8E6;stroke:#E5E8E6;stroke-width:0.4283;stroke-linecap:round;}
	.st54{fill:#E5E8E6;stroke:#E5E8E6;stroke-miterlimit:10;}
	.st55{opacity:0.15;fill:#E5E8E6;}
	.st56{opacity:4.000000e-02;fill:none;stroke:#E5E8E6;stroke-miterlimit:10;}
	.st57{fill:#FF8029;}
	.st58{fill:none;stroke:#E5E8E6;stroke-miterlimit:10;stroke-dasharray:1,1;}
	.st59{opacity:0.8;}
	.st60{fill:none;stroke:#FF8F39;stroke-dasharray:1,1;}
	.st61{fill:none;stroke:#FF8F39;}
	.st62{fill:none;stroke:#FF8F39;stroke-width:0.429;}
	.st63{fill:#FF8F39;stroke:#FF8F39;stroke-width:0.1073;stroke-miterlimit:10;}
	.st64{opacity:0.8;fill:#4E5250;}
	.st65{opacity:0.8;fill:#4E5250;stroke:#FF8F39;stroke-miterlimit:10;}
	.st66{fill:#FF8F39;stroke:#FF8F39;stroke-miterlimit:10;}
	.st67{fill:#FF4247;stroke:#FF8F39;stroke-miterlimit:10;}
	.st68{fill:#3DB3D1;stroke:#FF8F39;stroke-miterlimit:10;}
	.st69{opacity:0.8;fill:#FF8F39;}
	.st70{opacity:0.5;fill:none;stroke:#E5E8E6;}
	.st71{opacity:4.000000e-02;fill:none;stroke:#FF8F39;}
	.st72{opacity:0.9;}
	.st73{opacity:4.000000e-02;fill:#FF8F39;}
	.st74{opacity:4.000000e-02;fill:#FFFFFF;}
	.st75{opacity:0.8;fill:none;stroke:#D2D2D2;stroke-miterlimit:10;}
	.st76{opacity:0.8;fill:none;stroke:#E5E8E6;stroke-miterlimit:10;}
	.st77{opacity:0.7;}
	.st78{fill:#FFFFFF;}
	.st79{fill:none;stroke:#F9BE00;stroke-dasharray:1,1;}
	.st80{fill:none;stroke:#F9BE00;}
	.st81{fill:#F9BE00;}
	.st82{clip-path:url(#XMLID_3_);fill:#F9BE00;stroke:#F9BE00;stroke-miterlimit:10;}
	.st83{opacity:0.6;fill:#E5E8E6;}
	.st84{fill:none;stroke:#E5E8E6;stroke-width:3;stroke-linecap:round;stroke-linejoin:round;stroke-miterlimit:10;}
	.st85{fill-rule:evenodd;clip-rule:evenodd;fill:#E5E8E6;}
	.st86{clip-path:url(#SVGID_2_);}
</style>
<symbol  id="New_Symbol" viewBox="-174 -35.6 174 35.6">
	<g>
		<text transform="matrix(1 0 0 -1 -177.9033 -27.3906)" class="st0" style="font-family:'ClarendonLTStd-Light'; font-size:33;">0:00:00</text>
	</g>
	<path class="st0" d="M0-15C0-9.6-4.3-5-9.7-5h-6.6C-21.7-5-26-9.6-26-15v-5.6c0-5.4,4.3-9.4,9.7-9.4h6.6c5.4,0,9.7,4.1,9.7,9.4V-15
		z"/>
	<path class="st1" d="M-17-23.3v11.6l10-5.8L-17-23.3z"/>
	<polygon class="st2" points="-174,-1 0,-1 0,-35 -174,-35 	"/>
</symbol>
<symbol  id="New_Symbol_2" viewBox="-174 -35.6 174 35.6">
	<g>
		<text transform="matrix(1 0 0 -1 -177.9033 -27.3906)" class="st0" style="font-family:'ClarendonLTStd-Light'; font-size:33;">0:00:00</text>
	</g>
	<path class="st0" d="M0-15C0-9.6-4.3-5-9.7-5h-6.6C-21.7-5-26-9.6-26-15v-5.6c0-5.4,4.3-9.4,9.7-9.4h6.6c5.4,0,9.7,4.1,9.7,9.4V-15
		z"/>
	<path class="st1" d="M-17-23.3v11.6l10-5.8L-17-23.3z"/>
	<polygon class="st2" points="-174,-1 0,-1 0,-35 -174,-35 	"/>
</symbol>
<symbol  id="New_Symbol_3" viewBox="-174 -35.6 174 35.6">
	<g>
		<text transform="matrix(1 0 0 -1 -177.9033 -27.3906)" class="st0" style="font-family:'ClarendonLTStd-Light'; font-size:33;">0:00:00</text>
	</g>
	<path class="st0" d="M0-15C0-9.6-4.3-5-9.7-5h-6.6C-21.7-5-26-9.6-26-15v-5.6c0-5.4,4.3-9.4,9.7-9.4h6.6c5.4,0,9.7,4.1,9.7,9.4V-15
		z"/>
	<path class="st1" d="M-17-23.3v11.6l10-5.8L-17-23.3z"/>
	<polygon class="st2" points="-174,-1 0,-1 0,-35 -174,-35 	"/>
</symbol>
<symbol  id="New_Symbol_4" viewBox="-173 -35.6 173 35.6">
	<g>
		<text transform="matrix(1 0 0 -1 -177.9033 -27.3906)" class="st0" style="font-family:'ClarendonLTStd-Light'; font-size:33;">0:00:00</text>
	</g>
	<path class="st0" d="M0-15C0-9.6-4.3-5-9.7-5h-6.6C-21.7-5-26-9.6-26-15v-5.6c0-5.4,4.3-9.4,9.7-9.4h6.6c5.4,0,9.7,4.1,9.7,9.4V-15
		z"/>
	<path class="st1" d="M-17-23.3v11.6l10-5.8L-17-23.3z"/>
	<polygon class="st2" points="-173,-1 0,-1 0,-35 -173,-35 	"/>
</symbol>
<symbol  id="New_Symbol_5" viewBox="-173 -35.6 173 35.6">
	<g>
		<text transform="matrix(1 0 0 -1 -177.9033 -27.3906)" class="st0" style="font-family:'ClarendonLTStd-Light'; font-size:33;">0:00:00</text>
	</g>
	<path class="st0" d="M0-15C0-9.6-4.3-5-9.7-5h-6.6C-21.7-5-26-9.6-26-15v-5.6c0-5.4,4.3-9.4,9.7-9.4h6.6c5.4,0,9.7,4.1,9.7,9.4V-15
		z"/>
	<path class="st1" d="M-17-23.3v11.6l10-5.8L-17-23.3z"/>
	<polygon class="st2" points="-173,-1 0,-1 0,-35 -173,-35 	"/>
</symbol>
<g id="Solid">
</g>
<g id="Colours">
</g>
<g id="Vertical">
</g>
<g id="Horizontal">
	<line class="st18" x1="0" y1="6.5" x2="7" y2="6.5"/>
</g>
<g id="Lines">
</g>
<g id="Graphics">
</g>
<g id="Content">
	<g id="New_Symbol_7">
	</g>
</g>
</svg>
