<?xml version="1.0" encoding="utf-8"?>
<!-- Generator: Adobe Illustrator 17.1.0, SVG Export Plug-In . SVG Version: 6.00 Build 0)  -->
<!DOCTYPE svg PUBLIC "-//W3C//DTD SVG 1.1//EN" "http://www.w3.org/Graphics/SVG/1.1/DTD/svg11.dtd">
<svg version="1.1" xmlns="http://www.w3.org/2000/svg" xmlns:xlink="http://www.w3.org/1999/xlink" x="0px" y="0px"
	 viewBox="0 0 1142 20" style="enable-background:new 0 0 1142 20;" xml:space="preserve">
<style type="text/css">

	line {
	    opacity: 0.07;
	    fill: none;
	    stroke: #E5E8E6;
	}
	.st0{fill:#3E4645;}
	.st1{fill:#FFF5E3;}
	.st2{display:none;fill:none;}
	.st3{display:none;opacity:0.3;}
	.st4{display:inline;fill-rule:evenodd;clip-rule:evenodd;fill:#1D1D1B;}
	.st5{display:none;opacity:0.15;}
	.st6{display:inline;fill:#1D1D1B;}
	.st7{display:inline;}
	.st8{fill:#1D1D1B;}
	.st9{opacity:0.1;fill:#1D1D1B;}
	.st10{display:none;}
	.st11{fill:#FFFFFF;stroke:#58595B;stroke-width:0.75;stroke-miterlimit:10;}
	.st12{fill:#8DB547;}
	.st13{fill:#FF8F39;}
	.st14{fill:#FF4247;}
	.st15{fill:#FF7BA7;}
	.st16{fill:#3DB3D1;}
	.st17{fill:#4EBB66;}
	.st18{opacity:7.000000e-02;fill:none;stroke:#E5E8E6;}
	.st19{fill:none;stroke:#E5E8E6;}
	.st20{fill:#E5E8E6;}
	.st21{fill:none;stroke:#FF8F39;stroke-miterlimit:10;}
	.st22{fill:none;stroke:#FF8F39;stroke-miterlimit:10;stroke-dasharray:1,1;}
	.st23{fill:none;stroke:#FF8F39;stroke-width:2;stroke-miterlimit:10;}
	.st24{fill:#E5E8E6;stroke:#FF8F39;stroke-miterlimit:10;}
	.st25{fill:#E5E8E6;stroke:#FF8F39;stroke-width:2;stroke-miterlimit:10;stroke-dasharray:2,2;}
	.st26{fill:none;stroke:#FF8F39;stroke-width:0.5;stroke-miterlimit:10;}
	.st27{fill-rule:evenodd;clip-rule:evenodd;fill:#FF8F39;}
	.st28{fill:none;stroke:#FF7BA7;stroke-miterlimit:10;}
	.st29{fill:none;stroke:#8DB547;stroke-dasharray:1,1;}
	.st30{fill:none;stroke:#8DB547;stroke-miterlimit:10;}
	.st31{fill:none;stroke:#8DB547;stroke-width:6;stroke-miterlimit:10;stroke-dasharray:1,1;}
	.st32{fill:none;stroke:#8DB547;stroke-width:3;stroke-miterlimit:10;stroke-dasharray:1,1;}
	.st33{fill:none;stroke:#8DB547;stroke-miterlimit:10;stroke-dasharray:1,1;}
	.st34{fill:none;stroke:#FF4247;stroke-dasharray:1,1;}
	.st35{fill:none;stroke:#FF4247;}
	.st36{fill:none;stroke:#FF4247;stroke-miterlimit:10;}
	.st37{fill:none;stroke:#3DB3D1;stroke-width:13;stroke-dasharray:1,2;}
	.st38{fill:none;stroke:#3DB3D1;stroke-width:18;stroke-dasharray:1,2;}
	.st39{fill:#E5E8E6;stroke:#3DB3D1;stroke-linecap:round;}
	.st40{fill:none;stroke:#3DB3D1;stroke-linecap:round;}
	.st41{fill:none;stroke:#E5E8E6;stroke-linecap:round;stroke-miterlimit:10;}
	.st42{fill:none;stroke:#3DB3D1;stroke-linecap:round;stroke-miterlimit:10;}
	.st43{fill:none;stroke:#3DB3D1;stroke-miterlimit:10;}
	.st44{fill:none;stroke:#3DB3D1;stroke-dasharray:1,1;}
	.st45{fill:#E5E8E6;stroke:#3DB3D1;}
	.st46{fill:none;stroke:#3DB3D1;stroke-linecap:round;stroke-dasharray:1,1;}
	.st47{fill:none;}
	.st48{fill:none;stroke:#E5E8E6;stroke-linecap:round;}
	.st49{fill:none;stroke:#E5E8E6;stroke-width:0.5;stroke-linecap:round;}
	.st50{fill:none;stroke:#FF7BA7;stroke-miterlimit:10;stroke-dasharray:1,1;}
	.st51{fill:none;stroke:#FF7BA7;stroke-width:3;stroke-miterlimit:10;}
	.st52{fill:#E5E8E6;stroke:#FF7BA7;stroke-miterlimit:10;}
	.st53{fill-rule:evenodd;clip-rule:evenodd;fill:#E5E8E6;stroke:#E5E8E6;stroke-width:0.4283;stroke-linecap:round;}
	.st54{fill:#E5E8E6;stroke:#E5E8E6;stroke-miterlimit:10;}
	.st55{opacity:0.15;fill:#E5E8E6;}
	.st56{opacity:4.000000e-02;fill:none;stroke:#E5E8E6;stroke-miterlimit:10;}
	.st57{fill:#FF8029;}
	.st58{fill:none;stroke:#E5E8E6;stroke-miterlimit:10;stroke-dasharray:1,1;}
	.st59{opacity:0.8;}
	.st60{fill:none;stroke:#FF8F39;stroke-dasharray:1,1;}
	.st61{fill:none;stroke:#FF8F39;}
	.st62{fill:none;stroke:#FF8F39;stroke-width:0.429;}
	.st63{fill:#FF8F39;stroke:#FF8F39;stroke-width:0.1073;stroke-miterlimit:10;}
	.st64{opacity:0.8;fill:#4E5250;}
	.st65{opacity:0.8;fill:#4E5250;stroke:#FF8F39;stroke-miterlimit:10;}
	.st66{fill:#FF8F39;stroke:#FF8F39;stroke-miterlimit:10;}
	.st67{fill:#FF4247;stroke:#FF8F39;stroke-miterlimit:10;}
	.st68{fill:#3DB3D1;stroke:#FF8F39;stroke-miterlimit:10;}
	.st69{opacity:0.8;fill:#FF8F39;}
	.st70{opacity:0.5;fill:none;stroke:#E5E8E6;}
	.st71{opacity:4.000000e-02;fill:none;stroke:#FF8F39;}
	.st72{opacity:0.9;}
	.st73{opacity:4.000000e-02;fill:#FF8F39;}
	.st74{opacity:4.000000e-02;fill:#FFFFFF;}
	.st75{opacity:0.8;fill:none;stroke:#D2D2D2;stroke-miterlimit:10;}
	.st76{opacity:0.8;fill:none;stroke:#E5E8E6;stroke-miterlimit:10;}
	.st77{opacity:0.7;}
	.st78{fill:#FFFFFF;}
	.st79{fill:none;stroke:#F9BE00;stroke-dasharray:1,1;}
	.st80{fill:none;stroke:#F9BE00;}
	.st81{fill:#F9BE00;}
	.st82{clip-path:url(#XMLID_3_);fill:#F9BE00;stroke:#F9BE00;stroke-miterlimit:10;}
	.st83{opacity:0.6;fill:#E5E8E6;}
	.st84{fill:none;stroke:#E5E8E6;stroke-width:3;stroke-linecap:round;stroke-linejoin:round;stroke-miterlimit:10;}
	.st85{fill-rule:evenodd;clip-rule:evenodd;fill:#E5E8E6;}
	.st86{clip-path:url(#SVGID_2_);}
</style>
<symbol  id="New_Symbol" viewBox="-174 -35.6 174 35.6">
	<g>
		<text transform="matrix(1 0 0 -1 -177.9033 -27.3906)" class="st0" style="font-family:'ClarendonLTStd-Light'; font-size:33;">0:00:00</text>
	</g>
	<path class="st0" d="M0-15C0-9.6-4.3-5-9.7-5h-6.6C-21.7-5-26-9.6-26-15v-5.6c0-5.4,4.3-9.4,9.7-9.4h6.6c5.4,0,9.7,4.1,9.7,9.4V-15
		z"/>
	<path class="st1" d="M-17-23.3v11.6l10-5.8L-17-23.3z"/>
	<polygon class="st2" points="-174,-1 0,-1 0,-35 -174,-35 	"/>
</symbol>
<symbol  id="New_Symbol_2" viewBox="-174 -35.6 174 35.6">
	<g>
		<text transform="matrix(1 0 0 -1 -177.9033 -27.3906)" class="st0" style="font-family:'ClarendonLTStd-Light'; font-size:33;">0:00:00</text>
	</g>
	<path class="st0" d="M0-15C0-9.6-4.3-5-9.7-5h-6.6C-21.7-5-26-9.6-26-15v-5.6c0-5.4,4.3-9.4,9.7-9.4h6.6c5.4,0,9.7,4.1,9.7,9.4V-15
		z"/>
	<path class="st1" d="M-17-23.3v11.6l10-5.8L-17-23.3z"/>
	<polygon class="st2" points="-174,-1 0,-1 0,-35 -174,-35 	"/>
</symbol>
<symbol  id="New_Symbol_3" viewBox="-174 -35.6 174 35.6">
	<g>
		<text transform="matrix(1 0 0 -1 -177.9033 -27.3906)" class="st0" style="font-family:'ClarendonLTStd-Light'; font-size:33;">0:00:00</text>
	</g>
	<path class="st0" d="M0-15C0-9.6-4.3-5-9.7-5h-6.6C-21.7-5-26-9.6-26-15v-5.6c0-5.4,4.3-9.4,9.7-9.4h6.6c5.4,0,9.7,4.1,9.7,9.4V-15
		z"/>
	<path class="st1" d="M-17-23.3v11.6l10-5.8L-17-23.3z"/>
	<polygon class="st2" points="-174,-1 0,-1 0,-35 -174,-35 	"/>
</symbol>
<symbol  id="New_Symbol_4" viewBox="-173 -35.6 173 35.6">
	<g>
		<text transform="matrix(1 0 0 -1 -177.9033 -27.3906)" class="st0" style="font-family:'ClarendonLTStd-Light'; font-size:33;">0:00:00</text>
	</g>
	<path class="st0" d="M0-15C0-9.6-4.3-5-9.7-5h-6.6C-21.7-5-26-9.6-26-15v-5.6c0-5.4,4.3-9.4,9.7-9.4h6.6c5.4,0,9.7,4.1,9.7,9.4V-15
		z"/>
	<path class="st1" d="M-17-23.3v11.6l10-5.8L-17-23.3z"/>
	<polygon class="st2" points="-173,-1 0,-1 0,-35 -173,-35 	"/>
</symbol>
<symbol  id="New_Symbol_5" viewBox="-173 -35.6 173 35.6">
	<g>
		<text transform="matrix(1 0 0 -1 -177.9033 -27.3906)" class="st0" style="font-family:'ClarendonLTStd-Light'; font-size:33;">0:00:00</text>
	</g>
	<path class="st0" d="M0-15C0-9.6-4.3-5-9.7-5h-6.6C-21.7-5-26-9.6-26-15v-5.6c0-5.4,4.3-9.4,9.7-9.4h6.6c5.4,0,9.7,4.1,9.7,9.4V-15
		z"/>
	<path class="st1" d="M-17-23.3v11.6l10-5.8L-17-23.3z"/>
	<polygon class="st2" points="-173,-1 0,-1 0,-35 -173,-35 	"/>
</symbol>
<g id="Solid">
</g>
<g id="Colours">
</g>
<g id="Vertical">
	<line class="st19" x1="49.5" y1="0" x2="49.5" y2="20"/>
	<line class="st19" x1="56.5" y1="0" x2="56.5" y2="20"/>
	<line class="st19" x1="42.5" y1="0" x2="42.5" y2="20"/>
	<line class="st19" x1="35.5" y1="0" x2="35.5" y2="20"/>
	<line class="st19" x1="28.5" y1="0" x2="28.5" y2="20"/>
	<line class="st19" x1="21.5" y1="0" x2="21.5" y2="20"/>
	<line class="st19" x1="14.5" y1="0" x2="14.5" y2="20"/>
	<line class="st19" x1="7.5" y1="0" x2="7.5" y2="20"/>
	<line class="st19" x1="0.5" y1="0" x2="0.5" y2="20"/>
	<line class="st19" x1="63.5" y1="0" x2="63.5" y2="20"/>
	<line class="st19" x1="70.5" y1="0" x2="70.5" y2="20"/>
	<line class="st19" x1="77.5" y1="0" x2="77.5" y2="20"/>
	<line class="st19" x1="84.5" y1="0" x2="84.5" y2="20"/>
	<line class="st19" x1="91.5" y1="0" x2="91.5" y2="20"/>
	<line class="st19" x1="98.5" y1="0" x2="98.5" y2="20"/>
	<line class="st19" x1="105.5" y1="0" x2="105.5" y2="20"/>
	<line class="st19" x1="112.5" y1="0" x2="112.5" y2="20"/>
	<line class="st19" x1="119.5" y1="0" x2="119.5" y2="20"/>
	<line class="st19" x1="126.5" y1="0" x2="126.5" y2="20"/>
	<line class="st19" x1="133.5" y1="0" x2="133.5" y2="20"/>
	<line class="st19" x1="140.5" y1="0" x2="140.5" y2="20"/>
	<line class="st19" x1="147.5" y1="0" x2="147.5" y2="20"/>
	<line class="st19" x1="154.5" y1="0" x2="154.5" y2="20"/>
	<line class="st19" x1="161.5" y1="0" x2="161.5" y2="20"/>
	<line class="st19" x1="168.5" y1="0" x2="168.5" y2="20"/>
	<line class="st19" x1="175.5" y1="0" x2="175.5" y2="20"/>
	<line class="st19" x1="182.5" y1="0" x2="182.5" y2="20"/>
	<line class="st19" x1="189.5" y1="0" x2="189.5" y2="20"/>
	<line class="st19" x1="196.5" y1="0" x2="196.5" y2="20"/>
	<line class="st19" x1="203.5" y1="0" x2="203.5" y2="20"/>
	<line class="st19" x1="210.5" y1="0" x2="210.5" y2="20"/>
	<line class="st19" x1="217.5" y1="0" x2="217.5" y2="20"/>
	<line class="st19" x1="224.5" y1="0" x2="224.5" y2="20"/>
	<line class="st19" x1="231.5" y1="0" x2="231.5" y2="20"/>
	<line class="st19" x1="238.5" y1="0" x2="238.5" y2="20"/>
	<line class="st19" x1="245.5" y1="0" x2="245.5" y2="20"/>
	<line class="st19" x1="252.5" y1="0" x2="252.5" y2="20"/>
	<line class="st19" x1="259.5" y1="0" x2="259.5" y2="20"/>
	<line class="st19" x1="266.5" y1="0" x2="266.5" y2="20"/>
	<line class="st19" x1="273.5" y1="0" x2="273.5" y2="20"/>
	<line class="st19" x1="280.5" y1="0" x2="280.5" y2="20"/>
	<line class="st19" x1="287.5" y1="0" x2="287.5" y2="20"/>
	<line class="st19" x1="294.5" y1="0" x2="294.5" y2="20"/>
	<line class="st19" x1="301.5" y1="0" x2="301.5" y2="20"/>
	<line class="st19" x1="308.5" y1="0" x2="308.5" y2="20"/>
	<line class="st19" x1="315.5" y1="0" x2="315.5" y2="20"/>
	<line class="st19" x1="322.5" y1="0" x2="322.5" y2="20"/>
	<line class="st19" x1="329.5" y1="0" x2="329.5" y2="20"/>
	<line class="st19" x1="336.5" y1="0" x2="336.5" y2="20"/>
	<line class="st19" x1="343.5" y1="0" x2="343.5" y2="20"/>
	<line class="st19" x1="350.5" y1="0" x2="350.5" y2="20"/>
	<line class="st19" x1="357.5" y1="0" x2="357.5" y2="20"/>
	<line class="st19" x1="364.5" y1="0" x2="364.5" y2="20"/>
	<line class="st19" x1="371.5" y1="0" x2="371.5" y2="20"/>
	<line class="st19" x1="378.5" y1="0" x2="378.5" y2="20"/>
	<line class="st19" x1="385.5" y1="0" x2="385.5" y2="20"/>
	<line class="st19" x1="392.5" y1="0" x2="392.5" y2="20"/>
	<line class="st19" x1="399.5" y1="0" x2="399.5" y2="20"/>
	<line class="st19" x1="406.5" y1="0" x2="406.5" y2="20"/>
	<line class="st19" x1="413.5" y1="0" x2="413.5" y2="20"/>
	<line class="st19" x1="420.5" y1="0" x2="420.5" y2="20"/>
	<line class="st19" x1="427.5" y1="0" x2="427.5" y2="20"/>
	<line class="st19" x1="434.5" y1="0" x2="434.5" y2="20"/>
	<line class="st19" x1="441.5" y1="0" x2="441.5" y2="20"/>
	<line class="st19" x1="448.5" y1="0" x2="448.5" y2="20"/>
	<line class="st19" x1="455.5" y1="0" x2="455.5" y2="20"/>
	<line class="st19" x1="462.5" y1="0" x2="462.5" y2="20"/>
	<line class="st19" x1="469.5" y1="0" x2="469.5" y2="20"/>
	<line class="st19" x1="476.5" y1="0" x2="476.5" y2="20"/>
	<line class="st19" x1="483.5" y1="0" x2="483.5" y2="20"/>
	<line class="st19" x1="490.5" y1="0" x2="490.5" y2="20"/>
	<line class="st19" x1="497.5" y1="0" x2="497.5" y2="20"/>
	<line class="st19" x1="504.5" y1="0" x2="504.5" y2="20"/>
	<line class="st19" x1="511.5" y1="0" x2="511.5" y2="20"/>
	<line class="st19" x1="518.5" y1="0" x2="518.5" y2="20"/>
	<line class="st19" x1="525.5" y1="0" x2="525.5" y2="20"/>
	<line class="st19" x1="532.5" y1="0" x2="532.5" y2="20"/>
	<line class="st19" x1="539.5" y1="0" x2="539.5" y2="20"/>
	<line class="st19" x1="546.5" y1="0" x2="546.5" y2="20"/>
	<line class="st19" x1="553.5" y1="0" x2="553.5" y2="20"/>
	<line class="st19" x1="560.5" y1="0" x2="560.5" y2="20"/>
	<line class="st19" x1="567.5" y1="0" x2="567.5" y2="20"/>
	<line class="st19" x1="574.5" y1="0" x2="574.5" y2="20"/>
	<line class="st19" x1="581.5" y1="0" x2="581.5" y2="20"/>
	<line class="st19" x1="588.5" y1="0" x2="588.5" y2="20"/>
	<line class="st19" x1="595.5" y1="0" x2="595.5" y2="20"/>
	<line class="st19" x1="602.5" y1="0" x2="602.5" y2="20"/>
	<line class="st19" x1="609.5" y1="0" x2="609.5" y2="20"/>
	<line class="st19" x1="616.5" y1="0" x2="616.5" y2="20"/>
	<line class="st19" x1="623.5" y1="0" x2="623.5" y2="20"/>
	<line class="st19" x1="630.5" y1="0" x2="630.5" y2="20"/>
	<line class="st19" x1="637.5" y1="0" x2="637.5" y2="20"/>
	<line class="st19" x1="644.5" y1="0" x2="644.5" y2="20"/>
	<line class="st19" x1="651.5" y1="0" x2="651.5" y2="20"/>
	<line class="st19" x1="658.5" y1="0" x2="658.5" y2="20"/>
	<line class="st19" x1="665.5" y1="0" x2="665.5" y2="20"/>
	<line class="st19" x1="672.5" y1="0" x2="672.5" y2="20"/>
	<line class="st19" x1="679.5" y1="0" x2="679.5" y2="20"/>
	<line class="st19" x1="686.5" y1="0" x2="686.5" y2="20"/>
	<line class="st19" x1="693.5" y1="0" x2="693.5" y2="20"/>
	<line class="st19" x1="700.5" y1="0" x2="700.5" y2="20"/>
	<line class="st19" x1="707.5" y1="0" x2="707.5" y2="20"/>
	<line class="st19" x1="714.5" y1="0" x2="714.5" y2="20"/>
	<line class="st19" x1="721.5" y1="0" x2="721.5" y2="20"/>
	<line class="st19" x1="728.5" y1="0" x2="728.5" y2="20"/>
	<line class="st19" x1="735.5" y1="0" x2="735.5" y2="20"/>
	<line class="st19" x1="742.5" y1="0" x2="742.5" y2="20"/>
	<line class="st19" x1="749.5" y1="0" x2="749.5" y2="20"/>
	<line class="st19" x1="756.5" y1="0" x2="756.5" y2="20"/>
	<line class="st19" x1="763.5" y1="0" x2="763.5" y2="20"/>
	<line class="st19" x1="770.5" y1="0" x2="770.5" y2="20"/>
	<line class="st19" x1="777.5" y1="0" x2="777.5" y2="20"/>
	<line class="st19" x1="784.5" y1="0" x2="784.5" y2="20"/>
	<line class="st19" x1="791.5" y1="0" x2="791.5" y2="20"/>
	<line class="st19" x1="798.5" y1="0" x2="798.5" y2="20"/>
	<line class="st19" x1="805.5" y1="0" x2="805.5" y2="20"/>
	<line class="st19" x1="812.5" y1="0" x2="812.5" y2="20"/>
	<line class="st19" x1="819.5" y1="0" x2="819.5" y2="20"/>
	<line class="st19" x1="826.5" y1="0" x2="826.5" y2="20"/>
	<line class="st19" x1="833.5" y1="0" x2="833.5" y2="20"/>
	<line class="st19" x1="840.5" y1="0" x2="840.5" y2="20"/>
	<line class="st19" x1="847.5" y1="0" x2="847.5" y2="20"/>
	<line class="st19" x1="854.5" y1="0" x2="854.5" y2="20"/>
	<line class="st19" x1="861.5" y1="0" x2="861.5" y2="20"/>
	<line class="st19" x1="868.5" y1="0" x2="868.5" y2="20"/>
	<line class="st19" x1="875.5" y1="0" x2="875.5" y2="20"/>
	<line class="st19" x1="882.5" y1="0" x2="882.5" y2="20"/>
	<line class="st19" x1="889.5" y1="0" x2="889.5" y2="20"/>
	<line class="st19" x1="896.5" y1="0" x2="896.5" y2="20"/>
	<line class="st19" x1="903.5" y1="0" x2="903.5" y2="20"/>
	<line class="st19" x1="910.5" y1="0" x2="910.5" y2="20"/>
	<line class="st19" x1="917.5" y1="0" x2="917.5" y2="20"/>
	<line class="st19" x1="924.5" y1="0" x2="924.5" y2="20"/>
	<line class="st19" x1="931.5" y1="0" x2="931.5" y2="20"/>
	<line class="st19" x1="938.5" y1="0" x2="938.5" y2="20"/>
	<line class="st19" x1="945.5" y1="0" x2="945.5" y2="20"/>
	<line class="st19" x1="952.5" y1="0" x2="952.5" y2="20"/>
	<line class="st19" x1="959.5" y1="0" x2="959.5" y2="20"/>
	<line class="st19" x1="966.5" y1="0" x2="966.5" y2="20"/>
	<line class="st19" x1="973.5" y1="0" x2="973.5" y2="20"/>
	<line class="st19" x1="980.5" y1="0" x2="980.5" y2="20"/>
	<line class="st19" x1="987.5" y1="0" x2="987.5" y2="20"/>
	<line class="st19" x1="994.5" y1="0" x2="994.5" y2="20"/>
	<line class="st19" x1="1001.5" y1="0" x2="1001.5" y2="20"/>
	<line class="st19" x1="1008.5" y1="0" x2="1008.5" y2="20"/>
	<line class="st19" x1="1015.5" y1="0" x2="1015.5" y2="20"/>
	<line class="st19" x1="1022.5" y1="0" x2="1022.5" y2="20"/>
	<line class="st19" x1="1029.5" y1="0" x2="1029.5" y2="20"/>
	<line class="st19" x1="1036.5" y1="0" x2="1036.5" y2="20"/>
	<line class="st19" x1="1043.5" y1="0" x2="1043.5" y2="20"/>
	<line class="st19" x1="1050.5" y1="0" x2="1050.5" y2="20"/>
	<line class="st19" x1="1057.5" y1="0" x2="1057.5" y2="20"/>
	<line class="st19" x1="1064.5" y1="0" x2="1064.5" y2="20"/>
	<line class="st19" x1="1071.5" y1="0" x2="1071.5" y2="20"/>
	<line class="st19" x1="1078.5" y1="0" x2="1078.5" y2="20"/>
	<line class="st19" x1="1085.5" y1="0" x2="1085.5" y2="20"/>
	<line class="st19" x1="1092.5" y1="0" x2="1092.5" y2="20"/>
	<line class="st19" x1="1099.5" y1="0" x2="1099.5" y2="20"/>
	<line class="st19" x1="1106.5" y1="0" x2="1106.5" y2="20"/>
	<line class="st19" x1="1113.5" y1="0" x2="1113.5" y2="20"/>
	<line class="st19" x1="1120.5" y1="0" x2="1120.5" y2="20"/>
	<line class="st19" x1="1127.5" y1="0" x2="1127.5" y2="20"/>
	<line class="st19" x1="1134.5" y1="0" x2="1134.5" y2="20"/>
	<line class="st19" x1="1141.5" y1="0" x2="1141.5" y2="20"/>
</g>
<g id="Horizontal">
</g>
<g id="Lines">
</g>
<g id="Graphics">
</g>
<g id="Content">
	<g id="New_Symbol_7">
	</g>
</g>
</svg>
